{"title":"Blackhat 2015 HDCAM FIRST ENG x264 Pimp4003","uid":11682068,"size":1309176996,"categoryP":"video","categoryS":"movies","magnet":"?xt=urn:btih:f5651ee456d8f9f81dd02dccd99eb7314b4c826e&amp;dn=Blackhat+2015+HDCAM+FIRST+ENG+x264+Pimp4003&amp;tr=udp%3A%2F%2Ftracker.openbittorrent.com%3A80&amp;tr=udp%3A%2F%2Fopen.demonii.com%3A1337&amp;tr=udp%3A%2F%2Ftracker.coppersurfer.tk%3A6969&amp;tr=udp%3A%2F%2Fexodus.desync.com%3A6969","seeders":32,"leechers":1,"uploader":"shawnmurthy","files":1,"time":1423151246,"description":"SOURCE IS PIMP4003....LIKE ALWAYS I AM THE FIRST TO UPLOAD....THIS IS A GOOD CAM...DINT MAKE IT 720P BUT A NEW SOURCE OF 720P WILL BE UP....VIDEO PRETTY GOOD EVEN IN DARK PLACES....AUDIO IS NOT BAD A LITTLE HOLLOW BUT PRETTY GOOD\n\nSCREENSHOTS GO HERE..pimp4003 dot net/torrents.php?id=f5651ee456d8f9f81dd02dccd99eb7314b4c826e\n &lt;a href=&quot;\nhttp://i.imgur.com/SpsuXOR.png&quot; rel=&quot;nofollow&quot; target=&quot;_NEW&quot;&gt;\nhttp://i.imgur.com/SpsuXOR.png&lt;/a&gt;\n\nPIMP THE ONE AND ONLY PIMPSTER.....PRESENTS\n &lt;a href=&quot;\nhttp://i.imgur.com/j5fHFJa.jpg&quot; rel=&quot;nofollow&quot; target=&quot;_NEW&quot;&gt;\nhttp://i.imgur.com/j5fHFJa.jpg&lt;/a&gt;\n\nBlackhat 2015 HDCAM FIRST ENG x264 Pimp4003\n &lt;a href=&quot;\nhttp://www.imdb.com/title/tt2717822/&quot; rel=&quot;nofollow&quot; target=&quot;_NEW&quot;&gt;\nhttp://www.imdb.com/title/tt2717822/&lt;/a&gt;\n\nA furloughed convict and his American and Chinese partners hunt a high-level cybercrime network from Chicago to Los Angeles to Hong Kong to Jakarta.\n\nDirector: Michael Mann\n\nWriter: Morgan Davis Foehl\n\nStars: Chris Hemsworth, Viola Davis, Wei Tang |See full cast and crew Â»\n\nVideo\n\nID : 0\n\nFormat : AVC\n\nFormat/Info : Advanced Video Codec\n\nFormat profile : &lt;a class=&quot;__cf_email__&quot; href=&quot;/cdn-cgi/l/email-protection&quot; data-cfemail=&quot;793418101739354c5748&quot;&gt;[email&amp;#160;protected]&lt;/a&gt;&lt;script cf-hash='f9e31' type=&quot;text/javascript&quot;&gt;\n/* &lt;![CDATA[ */!function(){try{var t=&quot;currentScript&quot;in document?document.currentScript:function(){for(var t=document.getElementsByTagName(&quot;script&quot;),e=t.length;e--;)if(t[e].getAttribute(&quot;cf-hash&quot;))return t[e]}();if(t&amp;&amp;t.previousSibling){var e,r,n,i,c=t.previousSibling,a=c.getAttribute(&quot;data-cfemail&quot;);if(a){for(e=&quot;&quot;,r=parseInt(a.substr(0,2),16),n=2;a.length-n;n+=2)i=parseInt(a.substr(n,2),16)^r,e+=String.fromCharCode(i);e=document.createTextNode(e),c.parentNode.replaceChild(e,c)}}}catch(u){}}();/* ]]&gt; */&lt;/script&gt;\n\nFormat settings, CABAC : Yes\n\nFormat settings, ReFrames : 1 frame\n\nCodec ID : H264\n\nDuration : 2h 5mn\n\nBit rate : 1 186 Kbps\n\nWidth : 640 pixels\n\nHeight : 480 pixels\n\nDisplay aspect ratio : 4:3\n\nFrame rate : 25.000 fps\n\nColor space : YUV\n\nChroma subsampling : 4:2:0\n\nBit depth : 8 bits\n\nScan type : Progressive\n\nBits/(Pixel*Frame) : 0.154\n\nStream size : 1.04 GiB (85%)\n\nAudio\n\nID : 1\n\nFormat : MPEG Audio\n\nFormat version : Version 1\n\nFormat profile : Layer 3\n\nCodec ID : 55\n\nCodec ID/Hint : MP3\n\nDuration : 2h 5mn\n\nBit rate mode : Constant\n\nBit rate : 192 Kbps\n\nChannel(s) : 2 channels\n\nSampling rate : 44.1 KHz\n\nCompression mode : Lossy\n\nStream size : 173 MiB (14%)\n\nAlignment : Split accross interleaves\n\nInterleave, duration : 40 ms (1.00 video frame)\n\nInterleave, preload duration : 370 ms\n\nWriting library : LAMELAME_MAJOR_VERSI","torrent":{"xt":"urn:btih:f5651ee456d8f9f81dd02dccd99eb7314b4c826e","amp;dn":"Blackhat+2015+HDCAM+FIRST+ENG+x264+Pimp4003","amp;tr":["udp%3A%2F%2Ftracker.openbittorrent.com%3A80","udp%3A%2F%2Fopen.demonii.com%3A1337","udp%3A%2F%2Ftracker.coppersurfer.tk%3A6969","udp%3A%2F%2Fexodus.desync.com%3A6969"],"infoHash":"f5651ee456d8f9f81dd02dccd99eb7314b4c826e","infoHashBuffer":{"type":"Buffer","data":[245,101,30,228,86,216,249,248,29,208,45,204,217,158,183,49,75,76,130,110]},"announce":[],"urlList":[]}}